<svg xmlns="http://www.w3.org/2000/svg" viewBox="0 0 64 64" role="img" aria-label="건넴">
  <rect width="64" height="64" rx="16" fill="#fbfaf6"/>
  <path d="M13 27L32 12l19 15v24a6 6 0 0 1-6 6H19a6 6 0 0 1-6-6z" fill="#78a894"/>
  <rect x="20" y="20" width="24" height="28" rx="5" fill="#f0dfb9"/>
  <path d="M13 31l18 15a2 2 0 0 0 2 0l18-15v20a6 6 0 0 1-6 6H19a6 6 0 0 1-6-6z" fill="#78a894"/>
  <path d="M28 27c0-3 2-5 5-5s5 2 5 5c0 4-5 4-5 8" fill="none" stroke="#79a8d0" stroke-width="3.5" stroke-linecap="round"/>
  <circle cx="33" cy="39" r="2" fill="#d98270"/>
</svg>
